<svg xmlns="http://www.w3.org/2000/svg" width="288" height="288" viewBox="0 0 288 288" version="1.1"><path d="M 104.664 22.500 C 103.199 29.557, 100.795 36.380, 98.147 41 C 96.728 43.475, 87.901 53.375, 78.530 63 C 60.263 81.763, 56.572 87.058, 53.528 98.861 C 52.626 102.359, 52.027 105.360, 52.196 105.529 C 52.365 105.699, 53.678 106.132, 55.114 106.492 C 57.439 107.076, 58.026 106.622, 60.504 102.324 C 64.010 96.241, 67.779 91.566, 78.629 79.840 C 99.785 56.975, 106.524 43.532, 105.790 25.663 C 105.515 18.985, 105.439 18.771, 104.664 22.500 M 142.105 60.485 C 133.747 62.378, 123.762 65.722, 121.476 67.394 C 119.920 68.532, 121.513 68.798, 132.580 69.250 C 142.016 69.635, 147.387 70.377, 152.500 72.003 C 168.215 77.001, 179.342 85.106, 183.593 94.651 C 185.652 99.274, 186.383 99.967, 190.731 101.411 C 198.233 103.902, 210.323 111.427, 216.473 117.431 C 227.045 127.752, 231.337 142.448, 227.568 155.414 L 225.893 161.177 223.389 156.153 C 222.012 153.390, 219.190 149.598, 217.118 147.725 C 213.960 144.872, 212.324 144.214, 207.010 143.659 C 203.523 143.294, 200.409 143.258, 200.088 143.578 C 199.768 143.898, 202.499 149.862, 206.157 156.830 C 209.816 163.799, 213.987 172.323, 215.427 175.774 C 218.686 183.583, 218.005 185.320, 211.021 186.995 C 205.708 188.270, 205.076 188.988, 207.500 191 C 209.423 192.596, 209.398 194.462, 207.414 197.491 C 206.541 198.823, 206.108 200.365, 206.450 200.920 C 206.793 201.474, 206.168 202.832, 205.061 203.939 L 203.050 205.950 205.049 210.614 C 206.894 214.919, 206.927 215.463, 205.470 217.687 C 203.408 220.833, 198.154 223.994, 195 223.985 C 192.351 223.978, 185.295 222.056, 178.250 219.423 C 174.090 217.868, 174 217.736, 173.978 213.167 C 173.892 194.877, 152.271 185.294, 139.366 197.827 C 137.383 199.753, 135.139 202.815, 134.380 204.632 C 131.078 212.536, 133.941 223.565, 140.617 228.657 C 143.242 230.659, 143.776 231.565, 142.931 232.583 C 142.115 233.567, 142.288 234.678, 143.603 236.905 C 145.117 239.468, 146.171 240.002, 150.874 240.590 C 153.899 240.968, 160.452 241.005, 165.437 240.672 C 202.518 238.196, 234.158 213.735, 245.918 178.451 C 260.192 135.625, 240.776 88.893, 200.288 68.624 C 187.629 62.286, 177.371 59.815, 162 59.401 C 152.628 59.148, 146.544 59.479, 142.105 60.485 M 110.185 78.411 C 108.983 80.448, 108 82.292, 108 82.508 C 108 82.725, 111.938 82.697, 116.750 82.446 L 125.500 81.990 118.203 84.393 C 114.189 85.715, 109.014 88.080, 106.703 89.648 L 102.500 92.500 107.787 92.804 L 113.075 93.107 107.253 97.393 C 104.051 99.750, 99.759 103.632, 97.715 106.019 C 94.024 110.332, 92.857 112.830, 95.250 111.300 C 95.938 110.860, 99.139 108.766, 102.364 106.646 C 110.292 101.436, 120.499 97.362, 130.261 95.510 C 134.715 94.665, 138.548 93.786, 138.778 93.556 C 139.008 93.326, 137.014 91.971, 134.348 90.545 L 129.500 87.952 135 88.560 C 147.506 89.942, 157.695 93.579, 165.259 99.362 C 170.232 103.164, 172.784 103.816, 174.800 101.800 C 177.397 99.203, 176.110 95.540, 170.750 90.264 C 161.417 81.078, 146.976 76.314, 125.435 75.314 L 112.370 74.708 110.185 78.411 M 137.250 99.706 C 134.459 100.243, 134.423 101.381, 137.079 105.111 C 141.172 110.860, 149.167 112.628, 156.746 109.462 C 160.523 107.884, 164 105.250, 164 103.968 C 164 103.571, 161.779 102.291, 159.065 101.123 C 154.315 99.080, 143.984 98.409, 137.250 99.706 M 134.608 114.688 C 139.834 120.016, 144.869 125.662, 145.798 127.235 C 147.367 129.891, 147.770 130.037, 151.493 129.297 C 157.918 128.019, 191.767 128.457, 198.500 129.905 C 207.438 131.827, 216.340 136.411, 220.442 141.203 C 223.812 145.140, 224 145.227, 224 142.840 C 224 137.776, 218.144 128.321, 210.792 121.514 C 202.734 114.053, 189.867 107.078, 182.668 106.266 C 178.462 105.792, 177.086 106.322, 164.224 113.377 C 156.580 117.570, 149.745 121, 149.034 121 C 148.324 121, 146.113 119.528, 144.121 117.729 C 139.254 113.331, 127.508 105, 126.177 105 C 125.589 105, 129.383 109.360, 134.608 114.688 M 115 121.700 C 107.898 124.269, 106.911 125.275, 102.545 134.384 C 97.681 144.534, 96.452 148, 97.717 148 C 98.185 148, 99.306 146.762, 100.207 145.250 C 101.109 143.738, 105.135 138.940, 109.155 134.589 C 115.986 127.195, 116.269 126.714, 113.482 127.233 L 110.500 127.787 112.946 126.144 C 117.733 122.927, 119.604 121.063, 118 121.112 C 117.175 121.137, 115.825 121.402, 115 121.700 M 115.536 149.474 C 112.805 151.345, 108.602 155.248, 106.195 158.147 C 101.629 163.645, 95.456 174.789, 96.435 175.768 C 96.746 176.079, 97.150 176.146, 97.334 175.917 C 97.517 175.687, 99.880 172.358, 102.584 168.519 C 105.288 164.679, 110.763 158.274, 114.750 154.285 C 118.737 150.296, 122 146.800, 122 146.516 C 122 145.425, 120.324 146.191, 115.536 149.474 M 193.027 166.142 C 191.667 166.669, 188.854 166.813, 186.777 166.462 C 181.792 165.620, 181.771 167.565, 186.750 168.947 C 191.298 170.210, 196.689 170.312, 197.409 169.147 C 197.699 168.678, 197.388 167.595, 196.718 166.739 C 195.788 165.552, 194.914 165.411, 193.027 166.142 M 116.394 195.696 C 116.762 198.828, 118.225 203.979, 119.645 207.143 C 123.359 215.419, 128.131 219.259, 124.830 211.315 C 124.187 209.767, 123.373 204.225, 123.021 199 C 122.402 189.800, 122.340 189.607, 121.051 192.870 L 119.720 196.241 118.409 193.120 C 116.418 188.386, 115.650 189.367, 116.394 195.696 M 148.270 201.483 C 144.420 203.156, 141.007 208.333, 141.007 212.500 C 141.007 219.601, 148.429 225.892, 155.287 224.606 C 167.172 222.376, 169.382 206.731, 158.540 201.586 C 154.493 199.666, 152.495 199.646, 148.270 201.483" stroke="none" fill="#b4b3b4" fill-rule="evenodd"/><path d="M 113.521 17.349 C 114.919 30.403, 110.097 47.154, 100.519 62.522 C 97.990 66.578, 90.500 75.648, 83.873 82.676 C 77.246 89.704, 69.951 98.310, 67.662 101.799 C 63.512 108.124, 63.488 108.142, 59.500 107.594 C 45.326 105.646, 45.464 105.641, 43.842 108.146 C 42.235 110.627, 34 131.890, 34 133.559 C 34 134.094, 36.582 136.077, 39.737 137.964 C 42.892 139.851, 47.355 143.130, 49.655 145.250 C 53.434 148.733, 53.952 149.798, 55.033 156.302 C 58.473 177.006, 67.513 194.953, 82.117 210.073 C 95.043 223.456, 115.810 234.789, 132.500 237.569 L 136.500 238.235 131.551 233.131 C 128.829 230.324, 126.327 228.471, 125.991 229.014 C 125.148 230.379, 106.355 210.947, 100.832 203 C 86.851 182.880, 81.061 165.006, 81.022 141.838 C 80.997 127.541, 82.794 116.292, 86.321 108.656 C 87.631 105.820, 92.604 99, 97.373 93.500 C 108.295 80.903, 114.121 71.686, 117.601 61.500 C 119.940 54.657, 120.341 51.837, 120.379 42 C 120.419 31.614, 120.108 29.555, 117.165 20.750 C 115.373 15.387, 113.666 11, 113.373 11 C 113.081 11, 113.147 13.857, 113.521 17.349 M 42.827 189.952 C 38.056 193.797, 33.858 197.420, 33.498 198.004 C 32.648 199.379, 44.022 225.071, 45.780 225.746 C 46.516 226.028, 52.249 225.570, 58.520 224.728 L 69.921 223.198 81.632 234.822 L 93.343 246.446 91.797 258.473 C 90.653 267.375, 90.543 270.787, 91.376 271.605 C 93.406 273.600, 119.105 283.298, 119.941 282.385 C 120.387 281.898, 123.556 277.684, 126.983 273.019 C 130.410 268.355, 133.953 264.029, 134.857 263.407 C 135.761 262.784, 140.843 261.325, 146.150 260.165 C 167.400 255.521, 185.583 248.319, 200.242 238.741 C 208.277 233.489, 220.491 223.157, 219.652 222.319 C 219.423 222.090, 216.238 224.170, 212.576 226.943 C 196.856 238.841, 178.350 244.877, 155 245.722 C 142.792 246.164, 138.884 245.917, 130.278 244.158 C 107.495 239.501, 91.883 231.693, 77.233 217.629 C 68.373 209.123, 58.998 196.143, 56.001 188.234 C 55.014 185.631, 53.598 183.379, 52.853 183.231 C 52.109 183.083, 47.597 186.108, 42.827 189.952 M 198.954 249.644 C 194.854 252.199, 186.864 256.495, 181.198 259.192 L 170.895 264.094 173.144 267.797 C 176.254 272.916, 182.947 282, 183.608 282 C 185.200 282, 209.533 270.759, 210.185 269.722 C 210.608 269.050, 210.776 267.825, 210.557 267 C 210.339 266.175, 209.624 260.887, 208.968 255.250 C 208.312 249.613, 207.467 245, 207.092 245 C 206.716 245, 203.054 247.090, 198.954 249.644" stroke="none" fill="#640c13" fill-rule="evenodd"/></svg>